<svg xmlns="http://www.w3.org/2000/svg" width="500" height="500" viewBox="0 0 132.292 132.292"
	xmlns:v="https://vecta.io/nano">
	<defs>
		<linearGradient id="A" x1="68.021" y1="45.128" x2="89.65" y2="31.894"
			gradientUnits="userSpaceOnUse">
			<stop offset="0" stop-color="#00005f" stop-opacity=".415" />
			<stop offset=".81" stop-color="#41b8e0" />
		</linearGradient>
		<linearGradient id="B" x1="75.706" y1="37.916" x2="81.748" y2="37.916"
			gradientUnits="userSpaceOnUse">
			<stop offset=".104" stop-color="#fff" stop-opacity="0" />
			<stop offset=".515" stop-color="#fff" stop-opacity=".9" />
		</linearGradient>
	</defs>
	<g transform="matrix(6.061792 0 0 6.061792 -411.17341 -163.69367)">
		<rect width="21.824" height="21.824" x="67.83" y="27.004" ry="5.088" fill="url(#A)" />
		<path
			d="M78.655 39.616l-.194-.728c-.09-.337-.353-.6-.69-.69l-.728-.194c-.04-.011-.067-.047-.067-.088s.028-.077.067-.088l.728-.194c.337-.09.6-.353.69-.69l.194-.728c.011-.04.047-.067.088-.067s.077.028.088.067l.194.728c.09.337.353.6.69.69l.728.194c.04.011.067.047.067.088s-.028.077-.067.088l-.728.194c-.337.09-.6.353-.69.69l-.194.728c-.011.04-.047.067-.088.067s-.077-.028-.088-.067z"
			fill="#fff" fill-opacity=".9" />
		<path
			d="M78.731 31.659l-.004.576 2.31.042c.058.001.099.039.099.097v.978a.11.11 0 0 1-.115.115h-.157c-.696 0-1.147.782-.799 1.384.732 1.333 1.101 2.835 1.069 4.356v.002 3.637a.71.71 0 0 1-.715.715h-4.682c.005.007.004.609.004.609l4.677.003c.729 0 1.327-.598 1.327-1.327v-3.625-.007a9.29 9.29 0 0 0-1.146-4.663l-.002-.002-.002-.002c-.127-.22.015-.468.269-.468h.157a.73.73 0 0 0 .726-.726v-.978c0-.388-.323-.711-.711-.711l-2.306-.004z"
			fill="url(#B)" />
	</g>
</svg>