<svg xmlns="http://www.w3.org/2000/svg" width="164" height="164" viewBox="0 0 132.292 132.292"
	xmlns:v="https://vecta.io/nano">
	<defs>
		<linearGradient id="A" x1="68.021" y1="45.128" x2="89.65" y2="31.894"
			gradientUnits="userSpaceOnUse">
			<stop offset="0" stop-color="#8adeb9" stop-opacity=".924" />
			<stop offset=".81" stop-color="#41b8e0" />
		</linearGradient>
		<linearGradient id="B" x1="-2.548" y1="23.052" x2="8.863" y2="16.6"
			gradientUnits="userSpaceOnUse">
			<stop offset="0" stop-color="#ffa41e" stop-opacity=".898" />
			<stop offset="1" stop-color="#fff" stop-opacity=".998" />
		</linearGradient>
	</defs>
	<g transform="matrix(6.061792 0 0 6.061792 -411.17341 -163.69367)">
		<rect width="21.824" height="21.824" x="67.83" y="27.004" ry="5.088" fill="url(#A)" />
		<path
			d="M2.875 25.894l-.626-2.351a3.14 3.14 0 0 0-2.229-2.229l-2.351-.626c-.128-.034-.217-.15-.217-.283s.089-.249.217-.283l2.351-.626a3.14 3.14 0 0 0 2.229-2.229l.626-2.351c.034-.128.15-.217.283-.217s.249.089.283.217l.626 2.351a3.14 3.14 0 0 0 2.229 2.229l2.351.626c.128.034.217.15.217.283s-.089.249-.217.283l-2.351.626a3.14 3.14 0 0 0-2.229 2.229l-.626 2.351c-.034.128-.15.217-.283.217s-.249-.089-.283-.217z"
			transform="matrix(.556213 0 0 .556213 76.985997 26.566022)" fill="url(#B)" />
		<path
			d="M74.275 29.797c.008-.002-1.007.008-1.011.752h10.085c.071 0 .122.048.122.119v2.105c0 .082-.059.141-.141.141h-.192c-.853 0-1.406.958-.98 1.697a10.63 10.63 0 0 1 1.31 5.339v.003 4.457a.87.87 0 0 1-.877.877h-3.441c.007.009.014.75 1.116.75h2.324c.893 0 1.626-.733 1.626-1.626v-4.443-.008c.04-1.995-.443-3.967-1.404-5.715l-.003-.003-.003-.003a.37.37 0 0 1 .33-.574h.192c.487 0 .89-.403.89-.89v-2.105a.88.88 0 0 0-.871-.871z"
			fill="#fff" fill-opacity=".9" />
	</g>
</svg>