<?xml version="1.0" encoding="UTF-8" standalone="no"?>
<svg
   class="smartbanner__icon"
   viewBox="0 0 60 60"
   version="1.1"
   id="svg9"
   sodipodi:docname="yazio.svg"
   inkscape:version="1.3.2 (091e20e, 2023-11-25, custom)"
   xmlns:inkscape="http://www.inkscape.org/namespaces/inkscape"
   xmlns:sodipodi="http://sodipodi.sourceforge.net/DTD/sodipodi-0.dtd"
   xmlns="http://www.w3.org/2000/svg"
   xmlns:svg="http://www.w3.org/2000/svg">
  <defs
     id="defs9" />
  <sodipodi:namedview
     id="namedview9"
     pagecolor="#ffffff"
     bordercolor="#000000"
     borderopacity="0.25"
     inkscape:showpageshadow="2"
     inkscape:pageopacity="0.0"
     inkscape:pagecheckerboard="0"
     inkscape:deskcolor="#d1d1d1"
     inkscape:zoom="9.775"
     inkscape:cx="37.69821"
     inkscape:cy="41.483376"
     inkscape:window-width="3440"
     inkscape:window-height="1369"
     inkscape:window-x="-8"
     inkscape:window-y="-8"
     inkscape:window-maximized="1"
     inkscape:current-layer="g9" />
  <g
     fill="none"
     fill-rule="evenodd"
     id="g9">
    <g
       transform="matrix(1.2143708,0,0,1.2143708,6.4676492,0.8056164)"
       id="g8">
      <path
         fill="#03a9f4"
         d="m 19.661359,14.098741 c -0.107744,0.07271 -0.215488,0.145425 -0.320372,0.220514 -4.021814,2.835802 -6.646767,7.508911 -6.646767,12.791763 0,0.145901 0.0067,0.28895 0.01049,0.43295 C 8.0021035,30.136919 4.7783593,35.060958 4.5976733,40.752523 2.013243,36.36884 0.02378953,30.524721 0.02378953,24.922503 c 0,-10.583762 7.69083717,-13.280317 11.72552347,-13.460436 0.145884,-0.0048 0.290814,-0.01141 0.437651,-0.01141 1.162302,0 2.090046,0.241426 2.898128,0.578377 1.690535,0.707643 2.860465,1.837782 4.576267,2.069703"
         id="path1" />
      <path
         stroke="#03a9f4"
         stroke-width="0.5"
         d="m 19.661359,14.098741 c -0.107744,0.07271 -0.215488,0.145425 -0.320372,0.220514 -4.021814,2.835802 -6.646767,7.508911 -6.646767,12.791763 0,0.145901 0.0067,0.28895 0.01049,0.43295 C 8.0021035,30.136919 4.7783593,35.060958 4.5976733,40.752523 2.013243,36.36884 0.02378953,30.524721 0.02378953,24.922503 c 0,-10.583762 7.69083717,-13.280317 11.72552347,-13.460436 0.145884,-0.0048 0.290814,-0.01141 0.437651,-0.01141 1.162302,0 2.090046,0.241426 2.898128,0.578377 1.690535,0.707643 2.860465,1.837782 4.576267,2.069703 z"
         id="path2" />
      <path
         fill="#ffc107"
         d="m 35.927203,40.861354 c -2.469058,4.148436 -5.464441,6.962852 -7.79429,6.962852 -4.797477,0 -5.450617,-1.347327 -7.838151,-1.347327 -2.387535,0 -3.040675,1.347327 -7.838151,1.347327 -2.328419,0 -5.3252331,-2.814416 -7.7942912,-6.962852 -0.0205,-0.03564 -0.04243,-0.07271 -0.06436,-0.108831 0.180686,-5.691565 3.4039535,-10.615604 8.1065572,-13.208555 0.150175,5.510971 3.151756,10.310495 7.590245,12.982337 2.367034,1.424792 5.141209,2.245545 8.108941,2.245545 2.726024,0 5.288525,-0.692436 7.5235,-1.910496"
         id="path3" />
      <path
         stroke="#ffc107"
         stroke-width="0.5"
         d="m 35.927203,40.861354 c -2.469058,4.148436 -5.464441,6.962852 -7.79429,6.962852 -4.797477,0 -5.450617,-1.347327 -7.838151,-1.347327 -2.387535,0 -3.040675,1.347327 -7.838151,1.347327 -2.328419,0 -5.3252331,-2.814416 -7.7942912,-6.962852 -0.0205,-0.03564 -0.04243,-0.07271 -0.06436,-0.108831 0.180686,-5.691565 3.4039535,-10.615604 8.1065572,-13.208555 0.150175,5.510971 3.151756,10.310495 7.590245,12.982337 2.367034,1.424792 5.141209,2.245545 8.108941,2.245545 2.726024,0 5.288525,-0.692436 7.5235,-1.910496 z"
         id="path4" />
      <path
         fill="#e91e63"
         d="m 40.565924,24.922693 c 0,5.601743 -1.989453,11.445862 -4.573883,15.83002 -0.02193,0.03612 -0.04291,0.07271 -0.06484,0.108832 -2.234976,1.217584 -4.797476,1.910019 -7.5235,1.910019 -2.967732,0 -5.741907,-0.820277 -8.108941,-2.245069 -4.438489,-2.672317 -7.439593,-7.471842 -7.590245,-12.982337 -0.0033,-0.144475 -0.01049,-0.287524 -0.01049,-0.43295 0,-5.283327 2.624954,-9.95596 6.646767,-12.792238 0.105361,-0.07509 0.213105,-0.147802 0.320373,-0.220039 0.01525,0.0019 0.02908,0.0029 0.04434,0.0052 0.189744,0.02471 0.385686,0.0404 0.589256,0.0404 0.163523,0 0.320848,-0.01 0.473883,-0.02614 0.05292,-0.0062 0.106314,-0.01283 0.15971,-0.01948 0.581151,-0.07889 1.101279,-0.259961 1.599,-0.494258 0.363755,-0.171089 0.717023,-0.369267 1.074581,-0.576 1.285302,-0.73996 2.634488,-1.578297 4.801767,-1.578297 0.145884,0 0.292245,0.0071 0.438128,0.01188 4.03421,0.180119 11.724093,2.876198 11.724093,13.460436"
         id="path5" />
      <path
         stroke="#e91e63"
         stroke-width="0.5"
         d="m 40.565924,24.922693 c 0,5.601743 -1.989453,11.445862 -4.573883,15.83002 -0.02193,0.03612 -0.04291,0.07271 -0.06484,0.108832 -2.234976,1.217584 -4.797476,1.910019 -7.5235,1.910019 -2.967732,0 -5.741907,-0.820277 -8.108941,-2.245069 -4.438489,-2.672317 -7.439593,-7.471842 -7.590245,-12.982337 -0.0033,-0.144475 -0.01049,-0.287524 -0.01049,-0.43295 0,-5.283327 2.624954,-9.95596 6.646767,-12.792238 0.105361,-0.07509 0.213105,-0.147802 0.320373,-0.220039 0.01525,0.0019 0.02908,0.0029 0.04434,0.0052 0.189744,0.02471 0.385686,0.0404 0.589256,0.0404 0.163523,0 0.320848,-0.01 0.473883,-0.02614 0.05292,-0.0062 0.106314,-0.01283 0.15971,-0.01948 0.581151,-0.07889 1.101279,-0.259961 1.599,-0.494258 0.363755,-0.171089 0.717023,-0.369267 1.074581,-0.576 1.285302,-0.73996 2.634488,-1.578297 4.801767,-1.578297 0.145884,0 0.292245,0.0071 0.438128,0.01188 4.03421,0.180119 11.724093,2.876198 11.724093,13.460436 z"
         id="path6" />
      <path
         fill="#689f38"
         d="m 26.745015,4.6508673 c -1.911267,0.022337 -4.030872,1.2760396 -5.412953,3.4170297 -1.383035,2.142416 -1.648582,4.582812 -0.875303,6.324594 1.911268,-0.02329 4.029919,-1.276039 5.412477,-3.41798 1.382558,-2.1419407 1.648581,-4.5823367 0.875779,-6.3236437"
         id="path7" />
      <path
         fill="#8bc34a"
         d="M 11.651437,4.7524753e-5 C 10.470542,2.5136317 10.772321,6.0779881 12.706949,9.2426614 14.6411,12.40781 17.673193,14.300246 20.448321,14.392444 21.629216,11.878859 21.32696,8.314503 19.393286,5.1498297 17.459135,1.9856317 14.425135,0.09224554 11.651437,4.7524753e-5"
         id="path8" />
    </g>
  </g>
</svg>
